<?xml version="1.0" encoding="iso-8859-1"?>
<!-- Generator: Adobe Illustrator 19.0.0, SVG Export Plug-In . SVG Version: 6.00 Build 0)  -->
<svg version="1.1" id="Capa_1" xmlns="http://www.w3.org/2000/svg" xmlns:xlink="http://www.w3.org/1999/xlink" x="0px" y="0px"
	 viewBox="0 0 511.997 511.997" style="enable-background:new 0 0 511.997 511.997;" xml:space="preserve">
<g>
	<g>
		<path d="M477.295,73.722c-34.445-36.553-72.157-55.077-112.099-55.077c-44.652,0-85.05,26.888-109.147,71.426
			c-24.068-44.538-64.362-71.426-108.843-71.426c-39.734,0-76.372,17.992-112.023,55.001
			C-1.854,112.088-19.4,195.724,32.107,265.498l95.959-0.009l35.129-43.911c2.051-2.563,5.269-3.969,8.564-3.484
			c3.266,0.389,6.095,2.459,7.472,5.44l45.174,97.886l31.872-143.431c0.911-4.092,4.386-7.102,8.564-7.406
			c4.111-0.361,8.061,2.155,9.57,6.057l40.883,106.308l27.799-41.709c3.522-5.288,12.276-5.288,15.799,0l16.169,24.258h105.197
			C531.128,196.246,513.867,112.516,477.295,73.722z M440.695,112.573c-1.367,0.674-2.81,0.997-4.234,0.997
			c-3.484,0-6.836-1.918-8.507-5.25c-6.836-13.672-38.461-22.35-53.719-14.745c-4.709,2.336-10.396,0.446-12.741-4.244
			c-2.345-4.69-0.446-10.377,4.244-12.732c22.606-11.289,66.726-1.709,79.202,23.233
			C447.284,104.521,445.385,110.228,440.695,112.573z M467.877,198.952c-0.978,4.434-4.899,7.463-9.266,7.463
			c-0.674,0-1.358-0.076-2.032-0.218c-5.127-1.111-8.365-6.171-7.254-11.298c3.437-15.694,2.507-31.179-3.01-50.177
			c-1.462-5.051,1.434-10.32,6.475-11.773c5.041-1.481,10.301,1.434,11.763,6.475C470.906,161.326,471.969,180.239,467.877,198.952z
			"/>
	</g>
</g>
<g>
	<g>
		<path d="M369.991,284.477c-3.171,0-6.133-1.586-7.899-4.225l-11.089-16.634l-30.078,45.117c-1.965,2.962-5.393,4.548-8.944,4.168
			c-3.522-0.389-6.542-2.715-7.814-6.029l-36.173-94.041l-31.151,140.165c-0.883,3.978-4.206,6.94-8.26,7.377
			c-0.342,0.038-0.674,0.057-1.016,0.057c-3.665,0-7.054-2.136-8.621-5.516l-50.529-109.479l-28.378,35.48
			c-1.794,2.25-4.529,3.56-7.406,3.56H48.171c0.873,0.902,1.604,1.851,2.506,2.744c34.835,34.493,196.931,201.555,198.564,203.245
			c1.785,1.842,4.244,2.886,6.807,2.886c2.563,0,5.022-1.035,6.807-2.877c1.633-1.69,164.033-168.752,198.877-203.254
			c0.902-0.892,1.633-1.842,2.507-2.744L369.991,284.477z"/>
	</g>
</g>
<g>
</g>
<g>
</g>
<g>
</g>
<g>
</g>
<g>
</g>
<g>
</g>
<g>
</g>
<g>
</g>
<g>
</g>
<g>
</g>
<g>
</g>
<g>
</g>
<g>
</g>
<g>
</g>
<g>
</g>
</svg>
